<?xml version="1.0" encoding="UTF-8"?><svg id="Layer_2" xmlns="http://www.w3.org/2000/svg" viewBox="0 0 1146.73 1195.84"><defs><style>.cls-1{stroke-width:0px;}.cls-2{fill:none;stroke:#000;stroke-linecap:round;stroke-linejoin:round;stroke-width:40px;}</style></defs><g id="Layer_1-2"><path class="cls-2" d="m20,559.51C454.01,125.5,532.26,20,571.72,20c103.64,0,104.91,88.65,551.44,535.19"/><path class="cls-2" d="m571.72,23.01s89.66,113.76,43.26,160.15c-46.4,46.4-142.85,26.74-159.2,80.27-25.44,83.3,118.22,104.67,118.22,296.07"/><path class="cls-1" d="m190.01,1011.83v-35.95c0-8.56-4.14-15.5-9.25-15.5H9.27c-5.11,0-9.25-6.94-9.25-15.5v-384.97c0-8.56,4.14-15.5,9.25-15.5h303.55c5.11,0,9.25,6.94,9.25,15.5v142.25c0,8.56-4.14,15.5-9.25,15.5h-171.49c-5.11,0-9.25,6.94-9.25,15.5v35.95c0,8.56,4.14,15.5,9.25,15.5h171.49c5.11,0,9.25,6.94,9.25,15.5v380.22c0,10.21-5.79,17.63-11.67,14.96L6.85,1057.8c-4.04-1.83-6.84-7.96-6.84-14.96H.02c0-8.56,4.14-15.5,9.25-15.5h171.49c5.11,0,9.25-6.94,9.25-15.5Z"/><path class="cls-1" d="m496.95,559.01v52.44c0,7.63,5.43,13.82,12.13,13.82h40.66c6.7,0,12.13,6.19,12.13,13.82v46.6c0,7.63,5.43,13.82,12.13,13.82h0c6.7,0,12.13-6.19,12.13-13.82v-46.6c0-7.63,5.43-13.82,12.13-13.82h40.66c6.7,0,12.13-6.19,12.13-13.82v-52.44c0-7.63,5.43-13.82,12.13-13.82h135.09c6.7,0,12.13,6.19,12.13,13.82v482.78c0,6.23-3.66,11.7-8.94,13.34l-135.09,42c-7.72,2.4-15.32-4.22-15.32-13.34v-148.52c0-7.63-5.43-13.82-12.13-13.82h-4.59c-6.7,0-12.13,6.19-12.13,13.82v44.1c0,7.63-5.43,13.82-12.13,13.82h-76.73c-6.7,0-12.13-6.19-12.13-13.82v-44.1c0-7.63-5.43-13.82-12.13-13.82h0c-6.7,0-12.13,6.19-12.13,13.82v203.3c0,6.26-3.69,11.73-8.99,13.35l-139.68,42.66c-7.71,2.35-15.27-4.26-15.27-13.35v-622.22c0-7.63,5.43-13.82,12.13-13.82h139.68c6.7,0,12.13,6.19,12.13,13.82Z"/><path class="cls-1" d="m821.98,924.49v-300.03c0-4.83,3.22-8.74,7.18-8.74h34.11c3.97,0,7.18-3.91,7.18-8.74v-53.06c0-4.83,3.22-8.74,7.18-8.74h258.32c3.97,0,7.18,3.91,7.18,8.74v134.62c0,4.83-3.22,8.74-7.18,8.74h-179.04c-3.97,0-7.18,3.91-7.18,8.74v254.39c0,4.83,3.22,8.74,7.18,8.74l182.63-36.55c3.97,0,7.18,3.91,7.18,8.74h0c0,4.3-2.57,7.96-6.06,8.63l-261.91,80.01c-4.36.84-8.3-3.26-8.3-8.63v-79.37c0-4.83-3.22-8.74-7.18-8.74h-34.11c-3.97,0-7.18-3.91-7.18-8.74Z"/></g></svg>
