<?xml version="1.0" encoding="utf-8"?>
<!-- Generator: Adobe Illustrator 27.9.0, SVG Export Plug-In . SVG Version: 6.00 Build 0)  -->
<svg version="1.1" id="Layer_1" xmlns="http://www.w3.org/2000/svg" xmlns:xlink="http://www.w3.org/1999/xlink" x="0px" y="0px"
	 viewBox="0 0 1024 1024" style="enable-background:new 0 0 1024 1024;" xml:space="preserve">
<g>
	<path d="M719.4,610.3c-6.5,3.7-12.6,7.2-18.6,10.7c-28.3,16.3-56.5,32.6-84.8,48.9c-17.2,9.9-34.4,20-51.7,29.8
		c-15.5,8.8-34.2-1.3-35.6-19.2c-0.1-0.8-0.1-1.7-0.1-2.5c0-48.2-0.1-96.4,0-144.5c0.1-22.8,9.2-41.4,27.7-54.8
		c8.1-5.8,17.1-10.4,25.8-15.4c27.1-15.7,54.3-31.3,81.4-46.9c30.5-17.6,61.1-35.2,91.6-52.9c1.3-0.8,2.7-1.6,4.2-2.5
		c-6.2-1.5-12.3-2.7-18.2-4.4c-30.1-8.6-54.9-25.3-74.6-49.4c-8-9.7-14.8-20.5-22.1-30.9c-18.4-26-39.8-49.1-66.4-66.9
		c-19.4-13-40.6-22.1-63-28.7c-5.2-1.5-10.4-2.9-15.4-4.3c6.9,7.8,14,15.2,20.4,23.3c11.1,13.8,19.8,29,24.4,46.2
		c6.7,25.1,3.1,48.2-14,68.4c-7.7,9.2-18,14.9-28.9,19.5c-15,6.2-30.8,9.3-46.5,13.1c-5.2,1.3-10.4,3.1-15.4,5.2
		c-4.1,1.7-4.7,4-3.3,8.3c2.1,6.7,6.2,12.4,10.6,17.8c8.4,10.5,17.2,20.6,25.4,31.2c13.6,17.5,24.6,36.5,31.7,57.6
		c6.6,19.5,9.2,39.6,8.8,60.1c-0.1,4.9,0,9.8,0,14.8c-0.3,0-0.6,0-1,0c-0.1-1.5-0.3-2.9-0.3-4.4c-0.6-14.1-1.9-28.1-5-41.9
		c-3.2-14.7-8.5-28.7-15.7-42c-13-24.2-30.6-44.8-49.8-64.3c-6.5-6.6-12.6-13.6-16.7-22.1c-5.6-11.5-2.6-21.8,8.4-28.2
		c3.7-2.2,7.7-4,11.8-5.1c13.8-3.9,27.7-7.3,41.5-11.2c10.1-2.8,19.6-7.1,27.9-13.6c12.3-9.6,18.7-22.5,20.6-37.7
		c1.8-14.4-1.3-28-6.3-41.3c-7.4-19.3-18.6-36.4-31.5-52.9c-2.1,4.8-4,9.4-6,14c-9.1,20.5-22.9,37.5-39.6,52.3
		c-10.7,9.5-22.4,17.5-34.2,25.7c-6.7,4.6-12.6,10.3-18.8,15.6c-24.2,20.8-50,39.3-78.4,53.9c-17.6,9-35.9,16.1-55.2,20.4
		c-0.4,0.1-0.8,0.2-1.9,0.4c4.6,2.7,8.7,5.1,12.8,7.5c29.5,17,59,34,88.4,51c32.4,18.7,64.8,37.3,97.2,56.1
		c22.5,13,34,32.6,34.5,58.6c0.2,11.5,0,23.1,0,34.7c0,4.3-1.6,5.2-5.4,3.1c-36.1-20.8-72.1-41.6-108.2-62.4
		c-24.7-14.2-49.4-28.5-74.1-42.7c-0.9-0.5-1.8-0.9-3-1.5c-0.1,0.9-0.2,1.6-0.2,2.3c0,20.8,0,41.5,0,62.3c0,1.7,0.5,2.7,2,3.5
		c26.2,15.1,52.5,30.3,78.7,45.4c26.5,15.3,53.2,30.2,79.3,46.1c19.4,11.8,29.2,30.1,30.8,52.7c0.1,1.5,0.1,3,0.1,4.5
		c0,59.9,0,119.8,0,179.7c0,5.1-1.4,5.8-5.9,3.3c-43.1-24.9-86.3-49.7-129.4-74.6c-40.4-23.3-80.7-46.6-121.1-69.9
		c-2.3-1.3-3.3-2.7-3.3-5.5c0.2-11.4,0.1-22.7,0.1-34.1c0-18.7,19.2-30.3,35.4-21.1c21.2,11.9,42.1,24.2,63.1,36.3
		c30,17.3,59.9,34.6,89.9,51.9c0.6,0.4,1.3,0.6,2.3,1c0-1.1,0-1.9,0-2.7c0-20.6,0-41.1,0.1-61.7c0-2-0.7-3-2.3-4
		c-39.9-23-79.8-46-119.6-69c-13.4-7.7-27.1-15-40-23.5c-18.7-12.4-28.6-30.7-28.8-52.9c-0.5-61.2-0.2-122.5-0.2-183.7
		c0-2.5,0.8-3.9,3.6-3.9c13.8,0,27-3.2,39.9-7.6c32.8-11,62-28.9,89.1-50.1c11.5-9,22.2-19,33.6-28.3c5.1-4.2,11-7.5,16.4-11.3
		c17.7-12.4,34-26.3,46.5-44.1c7.5-10.7,12.6-22.5,17.4-34.5c1-2.5,2.1-5,3.3-7.4c1.7-3.2,5.1-4.8,8.5-4
		c24.6,6.1,48.8,13.3,71.5,25.1c23.5,12.2,44,28.2,62.2,47.2c15.4,16.1,28.3,34.2,40.6,52.7c15.8,23.7,36.6,41.8,63.3,52.7
		c16.7,6.8,34.1,10.4,52.2,9.6c3.5-0.2,4.1,0.4,4.1,4c0,23.3,0,46.6,0.1,69.9c0,2.6-0.8,4.1-3,5.4c-20.6,11.8-41.1,23.7-61.6,35.6
		c-30.5,17.6-60.9,35.1-91.4,52.7c-11,6.3-21.9,12.6-32.8,19c-0.8,0.5-1.7,1.8-1.7,2.8c-0.1,21.4-0.1,42.8-0.1,64.2
		c0,0.3,0.1,0.6,0.1,1.2c5.7-3.3,11.3-6.5,16.9-9.7c28.3-16.3,56.5-32.6,84.8-48.9c17.5-10.1,35.1-20.2,52.6-30.4
		c14.6-8.5,32.5-0.6,35.9,16c0.3,1.4,0.3,2.8,0.3,4.2c0,60.8,0,121.5,0.1,182.3c0,2.3-0.9,3.4-2.7,4.4
		c-23.8,13.7-47.6,27.4-71.4,41.2c-29.4,17-58.8,34-88.2,50.9c-29.2,16.8-58.3,33.6-87.5,50.4c-1.8,1-3.5,2.1-5.3,3.1
		c-2.3,1.3-4.4,0.3-4.4-2.2c0.2-15.3-0.7-30.7,1-45.8c2.4-21.9,14.8-38,33.8-49c35.7-20.5,71.3-41.1,107-61.7
		c15.6-9,31.2-18,46.8-27c0.9-0.6,2.1-1.9,2.1-2.8C719.4,654.3,719.4,632.6,719.4,610.3z"/>
</g>
</svg>
